<svg width="172" height="32" viewBox="0 0 172 32" fill="none" xmlns="http://www.w3.org/2000/svg">
<g clip-path="url(#clip0_2226_1364)">
<path d="M11.5276 26.4474C8.23253 29.7426 2.65191 29.7294 1.09339 25.3378C0.788252 24.478 0.544286 23.5939 0.364848 22.6919C-0.36779 19.0086 0.00822699 15.1908 1.44535 11.7213C2.88247 8.25181 5.31615 5.28636 8.43863 3.19998C11.5612 1.1136 15.2322 -1.60866e-07 18.9876 0C22.743 1.60866e-07 26.414 1.1136 29.5364 3.19998C32.659 5.28636 35.0926 8.25181 36.5298 11.7214C37.9669 15.1908 38.3428 19.0086 37.6103 22.6919C37.4308 23.5939 37.1869 24.478 36.8817 25.3378C35.3231 29.7294 29.7426 29.7426 26.4474 26.4474L21.361 21.361C20.875 20.875 20.9252 20.0736 21.0593 19.3996C21.1407 18.9899 21.0989 18.5652 20.939 18.1792C20.7791 17.7932 20.5085 17.4633 20.1611 17.2312C19.8137 16.9992 19.4054 16.8753 18.9876 16.8753C18.5698 16.8753 18.1614 16.9992 17.8141 17.2312C17.4666 17.4633 17.1959 17.7932 17.036 18.1792C16.8761 18.5652 16.8343 18.9899 16.9159 19.3996C17.0499 20.0736 17.1 20.875 16.6141 21.361L11.5276 26.4474Z" fill="url(#paint0_linear_2226_1364)"/>
<path d="M53.4236 21.8888H58.5274V24.8965H49.5273V8.90137H53.4236V21.8888Z" fill="#3A3B7B"/>
<path d="M65.4879 25.0786C64.2423 25.0786 63.1182 24.8128 62.1156 24.2812C61.1284 23.7495 60.346 22.99 59.7688 22.0026C59.2068 21.0153 58.9258 19.8609 58.9258 18.5393C58.9258 17.233 59.2143 16.0861 59.7915 15.0987C60.3689 14.0962 61.1587 13.3291 62.1612 12.7975C63.1638 12.2658 64.2879 12 65.5335 12C66.779 12 67.9031 12.2658 68.9056 12.7975C69.9082 13.3291 70.698 14.0962 71.2752 15.0987C71.8525 16.0861 72.1411 17.233 72.1411 18.5393C72.1411 19.8456 71.8448 21.0001 71.2525 22.0026C70.6753 22.99 69.8778 23.7495 68.86 24.2812C67.8575 24.8128 66.7334 25.0786 65.4879 25.0786ZM65.4879 21.7064C66.2322 21.7064 66.8626 21.433 67.3791 20.8862C67.9107 20.3393 68.1765 19.5571 68.1765 18.5393C68.1765 17.5215 67.9182 16.7393 67.4018 16.1924C66.9005 15.6456 66.2777 15.3721 65.5335 15.3721C64.7739 15.3721 64.1435 15.6456 63.6422 16.1924C63.141 16.7241 62.8904 17.5063 62.8904 18.5393C62.8904 19.5571 63.1335 20.3393 63.6195 20.8862C64.1208 21.433 64.7436 21.7064 65.4879 21.7064Z" fill="#3A3B7B"/>
<path d="M78.3551 12C79.2513 12 80.0336 12.1823 80.702 12.5469C81.3855 12.9113 81.9096 13.3899 82.2742 13.9822V12.1823H86.1704V24.8735C86.1704 26.0431 85.935 27.0989 85.464 28.0406C85.0083 28.9976 84.302 29.7571 83.3451 30.3191C82.4033 30.8812 81.226 31.1623 79.8134 31.1623C77.9298 31.1623 76.4032 30.7142 75.2335 29.8179C74.064 28.9368 73.3955 27.7368 73.2284 26.2178H77.0792C77.2006 26.7039 77.4893 27.0837 77.945 27.3571C78.4006 27.6457 78.9627 27.79 79.6311 27.79C80.4362 27.79 81.0741 27.5545 81.545 27.0837C82.0311 26.628 82.2742 25.8913 82.2742 24.8735V23.0735C81.8944 23.6659 81.3704 24.1521 80.702 24.5318C80.0336 24.8963 79.2513 25.0786 78.3551 25.0786C77.307 25.0786 76.3576 24.8128 75.507 24.2812C74.6563 23.7343 73.9803 22.9672 73.4792 21.9798C72.9931 20.9773 72.75 19.8229 72.75 18.5165C72.75 17.2102 72.9931 16.0633 73.4792 15.076C73.9803 14.0886 74.6563 13.3291 75.507 12.7975C76.3576 12.2658 77.307 12 78.3551 12ZM82.2742 18.5393C82.2742 17.5671 82.0008 16.8 81.4539 16.238C80.9222 15.676 80.269 15.395 79.4944 15.395C78.7197 15.395 78.0589 15.676 77.512 16.238C76.9804 16.7849 76.7146 17.5444 76.7146 18.5165C76.7146 19.4887 76.9804 20.2634 77.512 20.8406C78.0589 21.4026 78.7197 21.6836 79.4944 21.6836C80.269 21.6836 80.9222 21.4026 81.4539 20.8406C82.0008 20.2785 82.2742 19.5115 82.2742 18.5393Z" fill="#3A3B7B"/>
<path d="M94.0933 25.0786C92.8478 25.0786 91.7237 24.8128 90.7212 24.2812C89.7338 23.7495 88.9515 22.99 88.3743 22.0026C87.8123 21.0153 87.5312 19.8609 87.5312 18.5393C87.5312 17.233 87.8198 16.0861 88.3971 15.0987C88.9743 14.0962 89.7642 13.3291 90.7667 12.7975C91.7693 12.2658 92.8934 12 94.1389 12C95.3845 12 96.5086 12.2658 97.5111 12.7975C98.5137 13.3291 99.3035 14.0962 99.8807 15.0987C100.458 16.0861 100.747 17.233 100.747 18.5393C100.747 19.8456 100.45 21.0001 99.858 22.0026C99.2808 22.99 98.4833 23.7495 97.4655 24.2812C96.463 24.8128 95.3389 25.0786 94.0933 25.0786ZM94.0933 21.7064C94.8376 21.7064 95.468 21.433 95.9846 20.8862C96.5162 20.3393 96.782 19.5571 96.782 18.5393C96.782 17.5215 96.5237 16.7393 96.0073 16.1924C95.506 15.6456 94.8832 15.3721 94.1389 15.3721C93.3794 15.3721 92.749 15.6456 92.2477 16.1924C91.7465 16.7241 91.4958 17.5063 91.4958 18.5393C91.4958 19.5571 91.7389 20.3393 92.225 20.8862C92.7263 21.433 93.3491 21.7064 94.0933 21.7064Z" fill="#3A3B7B"/>
<path d="M104.09 10.8607C103.406 10.8607 102.844 10.6633 102.404 10.2683C101.978 9.85821 101.766 9.35693 101.766 8.76453C101.766 8.15692 101.978 7.65565 102.404 7.2607C102.844 6.85057 103.406 6.64551 104.09 6.64551C104.758 6.64551 105.305 6.85057 105.73 7.2607C106.171 7.65565 106.391 8.15692 106.391 8.76453C106.391 9.35693 106.171 9.85821 105.73 10.2683C105.305 10.6633 104.758 10.8607 104.09 10.8607ZM106.026 12.1823V24.8963H102.13V12.1823H106.026Z" fill="#3A3B7B"/>
<path d="M112.064 13.9822C112.444 13.3899 112.968 12.9113 113.636 12.5469C114.305 12.1823 115.087 12 115.983 12C117.032 12 117.981 12.2658 118.831 12.7975C119.682 13.3291 120.351 14.0886 120.836 15.076C121.337 16.0633 121.589 17.2102 121.589 18.5165C121.589 19.8229 121.337 20.9773 120.836 21.9798C120.351 22.9672 119.682 23.7343 118.831 24.2812C117.981 24.8128 117.032 25.0786 115.983 25.0786C115.102 25.0786 114.32 24.8963 113.636 24.5318C112.968 24.1672 112.444 23.6963 112.064 23.1191V30.9571H108.168V12.1823H112.064V13.9822ZM117.624 18.5165C117.624 17.5444 117.351 16.7849 116.803 16.238C116.271 15.676 115.612 15.395 114.821 15.395C114.047 15.395 113.386 15.676 112.839 16.238C112.308 16.8 112.042 17.5671 112.042 18.5393C112.042 19.5115 112.308 20.2785 112.839 20.8406C113.386 21.4026 114.047 21.6836 114.821 21.6836C115.596 21.6836 116.257 21.4026 116.803 20.8406C117.351 20.2634 117.624 19.4887 117.624 18.5165Z" fill="#3A3B7B"/>
<path d="M128.122 25.0786C127.013 25.0786 126.025 24.8887 125.159 24.509C124.294 24.1292 123.61 23.6128 123.109 22.9596C122.608 22.2912 122.326 21.5469 122.266 20.7266H126.117C126.162 21.1671 126.367 21.5241 126.731 21.7975C127.097 22.071 127.545 22.2077 128.076 22.2077C128.562 22.2077 128.934 22.1165 129.192 21.9342C129.466 21.7368 129.602 21.4861 129.602 21.1823C129.602 20.8178 129.413 20.5519 129.033 20.3849C128.653 20.2026 128.038 20.0052 127.187 19.7924C126.276 19.5798 125.516 19.3596 124.908 19.1317C124.301 18.8887 123.777 18.5165 123.337 18.0152C122.896 17.4988 122.676 16.8076 122.676 15.9418C122.676 15.2127 122.874 14.5519 123.269 13.9595C123.678 13.3519 124.271 12.8734 125.045 12.524C125.835 12.1747 126.77 12 127.848 12C129.442 12 130.696 12.3949 131.607 13.1848C132.534 13.9747 133.066 15.0228 133.203 16.3292H129.602C129.542 15.8887 129.344 15.5393 129.01 15.281C128.691 15.0228 128.266 14.8937 127.734 14.8937C127.279 14.8937 126.929 14.9848 126.686 15.1671C126.443 15.3342 126.322 15.5697 126.322 15.8734C126.322 16.238 126.512 16.5114 126.891 16.6937C127.286 16.876 127.893 17.0583 128.714 17.2405C129.655 17.4836 130.422 17.7267 131.015 17.9697C131.607 18.1975 132.124 18.5772 132.564 19.109C133.02 19.6254 133.256 20.3241 133.271 21.2052C133.271 21.9495 133.058 22.6178 132.633 23.2103C132.223 23.7875 131.623 24.2432 130.833 24.5773C130.058 24.9116 129.154 25.0786 128.122 25.0786Z" fill="#3A3B7B"/>
<path d="M147.524 12.1826V24.8967H143.628V23.165C143.233 23.727 142.693 24.1827 142.01 24.5321C141.342 24.8663 140.598 25.0334 139.777 25.0334C138.805 25.0334 137.946 24.8207 137.203 24.3954C136.458 23.9549 135.881 23.3245 135.471 22.5043C135.061 21.684 134.855 20.7194 134.855 19.6105V12.1826H138.729V19.0865C138.729 19.9371 138.949 20.5978 139.39 21.0688C139.83 21.5396 140.422 21.7751 141.167 21.7751C141.926 21.7751 142.527 21.5396 142.967 21.0688C143.407 20.5978 143.628 19.9371 143.628 19.0865V12.1826H147.524Z" fill="#3A3B7B"/>
<path d="M165.864 12.0459C167.443 12.0459 168.696 12.5244 169.623 13.4814C170.564 14.4383 171.035 15.7674 171.035 17.4687V24.8967H167.162V17.9928C167.162 17.1725 166.942 16.5421 166.501 16.1016C166.075 15.6459 165.484 15.418 164.724 15.418C163.964 15.418 163.364 15.6459 162.924 16.1016C162.499 16.5421 162.286 17.1725 162.286 17.9928V24.8967H158.412V17.9928C158.412 17.1725 158.192 16.5421 157.752 16.1016C157.326 15.6459 156.734 15.418 155.974 15.418C155.215 15.418 154.615 15.6459 154.175 16.1016C153.749 16.5421 153.537 17.1725 153.537 17.9928V24.8967H149.641V12.1826H153.537V13.7775C153.932 13.2459 154.448 12.8281 155.086 12.5244C155.724 12.2053 156.446 12.0459 157.25 12.0459C158.208 12.0459 159.059 12.2509 159.802 12.6611C160.561 13.0712 161.154 13.6561 161.58 14.4156C162.02 13.7167 162.62 13.1471 163.38 12.7066C164.139 12.2661 164.968 12.0459 165.864 12.0459Z" fill="#3A3B7B"/>
</g>
<defs>
<linearGradient id="paint0_linear_2226_1364" x1="36.2467" y1="9.49378" x2="2.54386" y2="9.49378" gradientUnits="userSpaceOnUse">
<stop stop-color="#64C2DB"/>
<stop offset="0.510417" stop-color="#7476ED"/>
<stop offset="1" stop-color="#E56F8C"/>
</linearGradient>
<clipPath id="clip0_2226_1364">
<rect width="171.034" height="32" fill="white"/>
</clipPath>
</defs>
</svg>
