<svg width="176" height="34" viewBox="0 0 176 34" fill="none" xmlns="http://www.w3.org/2000/svg">
<g clip-path="url(#clip0_2264_1060)">
<path d="M69.8386 6.49414H66.1367V23.1979H76.3847V19.9249H69.8386V6.49414Z" fill="#4845D2"/>
<path d="M76.7422 17.5315C76.7422 21.098 79.1349 23.4681 82.7465 23.4681C86.3355 23.4681 88.7283 21.098 88.7283 17.5315C88.7283 13.965 86.3355 11.5723 82.7465 11.5723C79.1349 11.5723 76.7422 13.965 76.7422 17.5315ZM80.2409 17.5089C80.2409 15.816 81.2341 14.6874 82.7465 14.6874C84.2363 14.6874 85.2295 15.816 85.2295 17.5089C85.2295 19.2245 84.2363 20.3531 82.7465 20.3531C81.2341 20.3531 80.2409 19.2245 80.2409 17.5089Z" fill="#4845D2"/>
<path d="M89.2873 17.3511C89.2873 20.7595 91.4995 23.0619 94.6371 23.0619C96.1495 23.0619 97.4587 22.5202 98.1133 21.6399V23.1974C98.1133 24.7549 97.1426 25.7932 95.4271 25.7932C93.8922 25.7932 92.8312 25.0709 92.7635 23.7843H89.2422C89.5582 26.8768 91.9509 28.9534 95.224 28.9534C99.0839 28.9534 101.522 26.4479 101.522 22.475V11.9111H98.3841L98.2036 13.0622C97.5715 12.1368 96.2397 11.5273 94.7049 11.5273C91.5446 11.5273 89.2873 13.8974 89.2873 17.3511ZM92.8087 17.2608C92.8087 15.6355 93.8922 14.552 95.2691 14.552C96.8718 14.552 98.0456 15.613 98.0456 17.2608C98.0456 18.9086 96.8943 20.0372 95.2917 20.0372C93.9148 20.0372 92.8087 18.9086 92.8087 17.2608Z" fill="#4845D2"/>
<path d="M102.535 17.5315C102.535 21.098 104.928 23.4681 108.54 23.4681C112.129 23.4681 114.521 21.098 114.521 17.5315C114.521 13.965 112.129 11.5723 108.54 11.5723C104.928 11.5723 102.535 13.965 102.535 17.5315ZM106.034 17.5089C106.034 15.816 107.027 14.6874 108.54 14.6874C110.029 14.6874 111.022 15.816 111.022 17.5089C111.022 19.2245 110.029 20.3531 108.54 20.3531C107.027 20.3531 106.034 19.2245 106.034 17.5089Z" fill="#4845D2"/>
<path d="M117.518 10.1504C118.601 10.1504 119.481 9.27008 119.481 8.16402C119.481 7.05795 118.601 6.2002 117.518 6.2002C116.412 6.2002 115.531 7.05795 115.531 8.16402C115.531 9.27008 116.412 10.1504 117.518 10.1504ZM115.757 23.1974H119.256V11.9111H115.757V23.1974Z" fill="#4845D2"/>
<path d="M121.293 28.6147H124.724V22.0687C125.378 22.9265 126.868 23.5134 128.426 23.5134C131.789 23.5134 133.82 20.9401 133.73 17.3736C133.64 13.7394 131.541 11.5498 128.403 11.5498C126.8 11.5498 125.288 12.2495 124.656 13.288L124.475 11.911H121.293V28.6147ZM124.791 17.5541C124.791 15.8612 125.92 14.7326 127.545 14.7326C129.193 14.7326 130.231 15.8838 130.231 17.5541C130.231 19.2246 129.193 20.3757 127.545 20.3757C125.92 20.3757 124.791 19.2471 124.791 17.5541Z" fill="#4845D2"/>
<path d="M134.102 19.6318C134.191 21.9117 135.998 23.4917 138.842 23.4917C141.573 23.4917 143.47 22.047 143.47 19.7221C143.47 18.0518 142.477 16.9457 140.625 16.4942L138.617 15.9976C137.894 15.817 137.443 15.6364 137.443 15.0495C137.443 14.4626 137.916 14.0789 138.617 14.0789C139.406 14.0789 139.925 14.5981 139.903 15.3655H143.041C142.95 13.018 141.167 11.5508 138.684 11.5508C136.179 11.5508 134.305 13.0406 134.305 15.2978C134.305 16.8102 135.14 18.0518 137.374 18.6387L139.361 19.1577C139.948 19.3158 140.196 19.5866 140.196 19.9703C140.196 20.5347 139.677 20.8959 138.796 20.8959C137.781 20.8959 137.239 20.4219 137.239 19.6318H134.102Z" fill="#4845D2"/>
<path d="M148.79 23.4909C150.168 23.4909 151.544 22.8588 152.244 21.9334L152.47 23.1975H155.743V11.9111H152.267V17.7801C152.267 19.4729 151.771 20.3984 150.168 20.3984C148.926 20.3984 148.113 19.8341 148.113 17.7349V11.9111H144.637V18.9989C144.637 21.6851 146.127 23.4909 148.79 23.4909Z" fill="#4845D2"/>
<path d="M161.253 23.1984V17.0361C161.253 15.1399 162.269 14.5982 163.262 14.5982C164.368 14.5982 165.09 15.2754 165.09 16.6749V23.1984H168.521V17.0361C168.521 15.1174 169.514 14.5756 170.508 14.5756C171.613 14.5756 172.359 15.2527 172.359 16.6749V23.1984H175.745V15.8171C175.745 13.2438 174.39 11.5283 171.478 11.5283C169.853 11.5283 168.521 12.3183 167.934 13.5372C167.257 12.3183 166.083 11.5283 164.21 11.5283C162.969 11.5283 161.817 12.0926 161.141 12.9955L161.005 11.912H157.754V23.1984H161.253Z" fill="#4845D2"/>
<path d="M0 16.5351C0 7.40301 7.40301 0 16.5351 0H38.2374C47.3695 0 54.7725 7.40301 54.7725 16.5351V33.0702H16.5351C7.40301 33.0702 0 25.6672 0 16.5351Z" fill="#4845D2"/>
<path d="M38.236 6.2002H16.5336C10.8261 6.2002 6.19922 10.8271 6.19922 16.5346C6.19922 22.2422 10.8261 26.8691 16.5336 26.8691H38.236C43.9435 26.8691 48.5704 22.2422 48.5704 16.5346C48.5704 10.8271 43.9435 6.2002 38.236 6.2002Z" fill="#A5B4FC"/>
<path d="M16.5344 21.7016C19.3882 21.7016 21.7016 19.3882 21.7016 16.5344C21.7016 13.6806 19.3882 11.3672 16.5344 11.3672C13.6806 11.3672 11.3672 13.6806 11.3672 16.5344C11.3672 19.3882 13.6806 21.7016 16.5344 21.7016Z" fill="black"/>
<path d="M14.467 15.5015C15.0378 15.5015 15.5005 15.0388 15.5005 14.468C15.5005 13.8973 15.0378 13.4346 14.467 13.4346C13.8963 13.4346 13.4336 13.8973 13.4336 14.468C13.4336 15.0388 13.8963 15.5015 14.467 15.5015Z" fill="white"/>
<path d="M39.2727 21.7016C42.1265 21.7016 44.4399 19.3882 44.4399 16.5344C44.4399 13.6806 42.1265 11.3672 39.2727 11.3672C36.4189 11.3672 34.1055 13.6806 34.1055 16.5344C34.1055 19.3882 36.4189 21.7016 39.2727 21.7016Z" fill="black"/>
<path d="M37.2014 15.5015C37.7722 15.5015 38.2349 15.0388 38.2349 14.468C38.2349 13.8973 37.7722 13.4346 37.2014 13.4346C36.6307 13.4346 36.168 13.8973 36.168 14.468C36.168 15.0388 36.6307 15.5015 37.2014 15.5015Z" fill="white"/>
</g>
<defs>
<clipPath id="clip0_2264_1060">
<rect width="175.745" height="33.0702" fill="white"/>
</clipPath>
</defs>
</svg>
