<svg width="194" height="51" viewBox="0 0 194 51" fill="none" xmlns="http://www.w3.org/2000/svg">
<path d="M65.7954 36.727C64.9257 36.774 64.0656 36.5276 63.3537 36.0275C63.0563 35.8078 62.8169 35.5191 62.6564 35.1866C62.4958 34.8539 62.4191 34.4875 62.4325 34.1187V20.611C62.4255 20.5538 62.4315 20.4957 62.4504 20.4412C62.4691 20.3867 62.5001 20.3373 62.541 20.2965C62.582 20.2557 62.6315 20.2248 62.6862 20.2062C62.7409 20.1874 62.7992 20.1814 62.8565 20.1884H65.3129C65.5907 20.1884 65.7223 20.3341 65.7223 20.611V33.0695C65.7223 33.6232 65.9709 33.9001 66.4826 33.9001C66.6996 33.909 66.9166 33.8845 67.1259 33.8272C67.4184 33.8272 67.5792 33.9147 67.5938 34.177L67.8131 35.9984C67.8237 36.0516 67.8226 36.1062 67.8102 36.159C67.7978 36.2116 67.7741 36.2611 67.7408 36.3038C67.7076 36.3466 67.6655 36.3819 67.6175 36.4071C67.5694 36.4323 67.5165 36.447 67.4622 36.4501C66.9242 36.6273 66.362 36.7207 65.7954 36.727Z" fill="#394149"/>
<path d="M79.6107 35.1678C78.3765 36.1841 76.8253 36.74 75.2243 36.74C73.6233 36.74 72.0723 36.1841 70.838 35.1678C69.7532 34.0764 69.1445 32.6022 69.1445 31.0659C69.1445 29.5296 69.7532 28.0554 70.838 26.964C72.0746 25.9529 73.6248 25.4004 75.2243 25.4004C76.8239 25.4004 78.374 25.9529 79.6107 26.964C80.6706 28.0655 81.2623 29.5326 81.2623 31.0586C81.2623 32.5847 80.6706 34.0517 79.6107 35.1532V35.1678ZM73.1481 33.2443C73.721 33.7615 74.4661 34.0478 75.2389 34.0478C76.0118 34.0478 76.7571 33.7615 77.3298 33.2443C77.8482 32.6504 78.1337 31.8896 78.1337 31.1023C78.1337 30.3152 77.8482 29.5544 77.3298 28.9603C76.7571 28.4433 76.0118 28.1569 75.2389 28.1569C74.4661 28.1569 73.721 28.4433 73.1481 28.9603C72.6298 29.5544 72.3442 30.3152 72.3442 31.1023C72.3442 31.8896 72.6298 32.6504 73.1481 33.2443Z" fill="#394149"/>
<path d="M94.7856 25.7684C95.0634 25.7684 95.195 25.9142 95.195 26.191V36.6387C95.2206 37.344 95.0881 38.0459 94.8074 38.6936C94.5267 39.3414 94.1047 39.9188 93.572 40.3836C92.3898 41.3883 90.8695 41.9089 89.3173 41.8407C87.9154 41.8898 86.5321 41.5084 85.3549 40.7479C84.8522 40.419 84.4228 39.9905 84.0934 39.4892C83.7638 38.9878 83.5413 38.4243 83.4395 37.8336C83.4395 37.5422 83.4395 37.411 83.8343 37.411H86.2907C86.3949 37.4145 86.4961 37.4482 86.5816 37.5076C86.6673 37.5671 86.7338 37.6498 86.7732 37.7462C86.9325 38.1887 87.2501 38.5572 87.6651 38.7807C88.1708 39.0408 88.7337 39.1711 89.3026 39.1596C89.646 39.1784 89.9895 39.1287 90.3134 39.0136C90.6373 38.8986 90.9348 38.7203 91.1888 38.4893C91.4208 38.2477 91.6012 37.9617 91.7194 37.6487C91.8375 37.3357 91.8907 37.002 91.876 36.6679V35.7499C90.9965 36.3945 89.9261 36.7279 88.8348 36.697C88.071 36.7247 87.3095 36.5984 86.5958 36.3255C85.8823 36.0524 85.2315 35.6387 84.6823 35.1087C83.6283 34.022 83.0391 32.5695 83.0391 31.0579C83.0391 29.5464 83.6283 28.0939 84.6823 27.007C85.2341 26.4819 85.8858 26.0721 86.5989 25.8018C87.3121 25.5315 88.0723 25.4062 88.8348 25.4333C89.9577 25.4037 91.0569 25.7587 91.9491 26.4387V26.2056C91.9424 26.1498 91.9482 26.0931 91.9662 26.0398C91.9842 25.9866 92.0139 25.9379 92.053 25.8974C92.0922 25.8569 92.14 25.8257 92.1928 25.8059C92.2457 25.7861 92.3023 25.7784 92.3585 25.783L94.7856 25.7684ZM89.1126 34.1033C89.4892 34.115 89.864 34.044 90.21 33.8954C90.5561 33.7469 90.8654 33.5244 91.1157 33.2436C91.6018 32.618 91.8656 31.8491 91.8656 31.0579C91.8656 30.2666 91.6018 29.4979 91.1157 28.8722C90.8662 28.5953 90.5589 28.376 90.2155 28.23C89.8719 28.084 89.5005 28.0148 89.1272 28.027C88.7462 28.0151 88.3672 28.0857 88.0163 28.2342C87.6654 28.3827 87.351 28.6054 87.0948 28.8867C86.5563 29.4852 86.2731 30.2693 86.3053 31.0724C86.279 31.8678 86.5559 32.6435 87.0802 33.2436C87.337 33.5242 87.6515 33.7465 88.0022 33.8948C88.353 34.0431 88.7317 34.1142 89.1126 34.1033Z" fill="#394149"/>
<path d="M107.816 35.1674C106.58 36.1786 105.029 36.7311 103.43 36.7311C101.83 36.7311 100.28 36.1786 99.0436 35.1674C97.9828 34.0635 97.3906 32.5941 97.3906 31.0656C97.3906 29.5372 97.9828 28.0677 99.0436 26.9637C100.281 25.9552 101.831 25.4043 103.43 25.4043C105.029 25.4043 106.578 25.9552 107.816 26.9637C108.876 28.0652 109.468 29.5322 109.468 31.0583C109.468 32.5844 108.876 34.0514 107.816 35.1529V35.1674ZM101.339 33.244C101.619 33.5098 101.95 33.7174 102.311 33.855C102.673 33.9925 103.058 34.0574 103.445 34.0454C103.829 34.0554 104.211 33.9898 104.57 33.8522C104.929 33.7147 105.257 33.508 105.535 33.244C106.045 32.646 106.325 31.8868 106.325 31.102C106.325 30.3172 106.045 29.558 105.535 28.96C105.257 28.6961 104.929 28.4894 104.57 28.352C104.211 28.2144 103.829 28.1487 103.445 28.1586C103.058 28.1468 102.673 28.2115 102.311 28.349C101.95 28.4866 101.619 28.6944 101.339 28.96C100.829 29.558 100.549 30.3172 100.549 31.102C100.549 31.8868 100.829 32.646 101.339 33.244Z" fill="#394149"/>
<path d="M114.746 23.2923C114.36 23.6295 113.863 23.8153 113.35 23.8153C112.836 23.8153 112.34 23.6295 111.953 23.2923C111.778 23.1275 111.639 22.9287 111.543 22.7083C111.448 22.4878 111.398 22.2502 111.398 22.01C111.398 21.7699 111.448 21.5324 111.543 21.3118C111.639 21.0913 111.778 20.8925 111.953 20.7277C112.344 20.399 113.35 20.2188 113.35 20.2188C113.35 20.2188 114.355 20.399 114.746 20.7277C114.921 20.8925 115.061 21.0913 115.156 21.3118C115.252 21.5324 115.301 21.7699 115.301 22.01C115.301 22.2502 115.252 22.4878 115.156 22.7083C115.061 22.9287 114.921 23.1275 114.746 23.2923ZM115.053 36.7272C114.184 36.7697 113.325 36.5237 112.611 36.0277C112.318 35.8048 112.083 35.5151 111.926 35.183C111.768 34.8509 111.692 34.4861 111.705 34.1189V26.192C111.698 26.1349 111.704 26.0768 111.723 26.0223C111.741 25.9678 111.772 25.9184 111.813 25.8776C111.854 25.8368 111.904 25.8059 111.958 25.7872C112.013 25.7684 112.071 25.7625 112.129 25.7694H114.585C114.863 25.7694 114.995 25.9152 114.995 26.192V33.0697C114.995 33.6234 115.243 33.9003 115.74 33.9003C115.962 33.9083 116.184 33.8837 116.398 33.8274C116.691 33.8274 116.851 33.9149 116.866 34.1772L117.085 35.9986C117.096 36.0518 117.095 36.1064 117.082 36.1592C117.07 36.2118 117.046 36.2613 117.013 36.304C116.98 36.3468 116.938 36.3821 116.89 36.4073C116.842 36.4325 116.789 36.4472 116.734 36.4503C116.192 36.6285 115.625 36.7219 115.053 36.7272Z" fill="#394149"/>
<path d="M126.12 25.4197C126.887 25.3895 127.652 25.5132 128.371 25.7835C129.089 26.054 129.746 26.4653 130.301 26.9934C131.335 28.0994 131.91 29.5546 131.91 31.0661C131.91 32.5776 131.335 34.033 130.301 35.1388C129.748 35.6717 129.093 36.0871 128.374 36.3601C127.655 36.6331 126.888 36.758 126.12 36.7271C125.025 36.7514 123.952 36.4189 123.064 35.78V41.0403C123.064 41.3171 122.918 41.4483 122.64 41.4483H120.184C120.128 41.4587 120.07 41.4554 120.015 41.4386C119.961 41.4217 119.911 41.392 119.871 41.3518C119.831 41.3116 119.801 41.2623 119.784 41.208C119.767 41.1538 119.764 41.0962 119.774 41.0403V29.0917C119.791 28.9748 119.781 28.8556 119.744 28.7434C119.706 28.6314 119.643 28.5294 119.56 28.4459C119.476 28.3624 119.374 28.2996 119.261 28.2624C119.149 28.2253 119.029 28.2149 118.911 28.232H118.429C118.107 28.232 117.946 28.1154 117.946 27.8823V26.1628C117.939 26.0565 117.968 25.9507 118.029 25.8632C118.091 25.7757 118.18 25.7117 118.283 25.682C118.789 25.4988 119.324 25.4099 119.862 25.4197C120.398 25.3723 120.937 25.4858 121.409 25.7454C121.88 26.005 122.263 26.399 122.508 26.8768C122.979 26.4021 123.542 26.028 124.163 25.7774C124.784 25.5269 125.45 25.4051 126.12 25.4197ZM123.839 33.2445C124.1 33.5162 124.413 33.7322 124.76 33.8799C125.106 34.0275 125.479 34.1035 125.857 34.1035C126.234 34.1035 126.607 34.0275 126.954 33.8799C127.3 33.7322 127.614 33.5162 127.874 33.2445C128.423 32.6341 128.712 31.8343 128.678 31.0151C128.717 30.1953 128.428 29.3936 127.874 28.7857C127.614 28.5142 127.3 28.2981 126.954 28.1505C126.607 28.0028 126.234 27.9267 125.857 27.9267C125.479 27.9267 125.106 28.0028 124.76 28.1505C124.413 28.2981 124.1 28.5142 123.839 28.7857C123.307 29.4044 123.03 30.201 123.064 31.0151C123.034 31.8286 123.311 32.6238 123.839 33.2445Z" fill="#394149"/>
<path d="M138.813 36.7266C137.501 36.7804 136.199 36.4676 135.055 35.8232C134.597 35.5478 134.206 35.1729 133.912 34.7264C133.619 34.28 133.43 33.7733 133.359 33.2441C133.359 32.9526 133.462 32.8069 133.783 32.8069H135.933C136.035 32.811 136.134 32.8429 136.219 32.8996C136.304 32.9561 136.372 33.035 136.415 33.1275C136.722 33.9144 137.526 34.3078 138.813 34.3078C139.262 34.3283 139.709 34.2381 140.114 34.0455C140.254 33.9826 140.374 33.8829 140.462 33.7571C140.55 33.6314 140.601 33.4842 140.611 33.3315C140.611 32.9526 140.378 32.6904 139.91 32.5155C139.355 32.3315 138.781 32.2092 138.199 32.1512C137.51 32.0734 136.826 31.9517 136.152 31.7869C135.497 31.6392 134.901 31.2991 134.441 30.8106C134.171 30.4787 133.972 30.0948 133.856 29.6828C133.741 29.2709 133.712 28.8396 133.771 28.416C133.83 27.9922 133.975 27.5851 134.199 27.2201C134.422 26.8549 134.719 26.5396 135.07 26.2935C136.124 25.6245 137.36 25.2986 138.608 25.3609C139.817 25.3203 141.012 25.6181 142.059 26.2206C142.481 26.4589 142.844 26.7878 143.122 27.1835C143.401 27.5793 143.587 28.0319 143.667 28.5084C143.667 28.7998 143.536 28.9455 143.273 28.9455H141.109C141.018 28.9509 140.927 28.9287 140.849 28.882C140.77 28.8352 140.708 28.7658 140.67 28.6832C140.525 28.3382 140.253 28.0616 139.91 27.9109C139.522 27.709 139.089 27.6086 138.652 27.6195C138.224 27.5963 137.796 27.6816 137.409 27.8672C137.273 27.9197 137.156 28.0115 137.072 28.131C136.989 28.2504 136.943 28.3921 136.942 28.5375C136.951 28.7368 137.024 28.9279 137.151 29.0826C137.277 29.2374 137.45 29.3475 137.643 29.3972C138.205 29.6082 138.789 29.7548 139.383 29.8344C140.067 29.9241 140.746 30.0506 141.416 30.2132C142.071 30.3611 142.667 30.7011 143.126 31.1895C143.372 31.4586 143.562 31.7735 143.685 32.1162C143.808 32.4588 143.862 32.8224 143.843 33.1858C143.855 33.6895 143.737 34.1879 143.498 34.6323C143.26 35.0766 142.91 35.4518 142.483 35.7212C141.391 36.4202 140.111 36.7708 138.813 36.7266Z" fill="#394149"/>
<path d="M159.295 35.9977C159.304 36.0494 159.301 36.1023 159.289 36.1532C159.276 36.2042 159.254 36.252 159.222 36.2941C159.191 36.3362 159.152 36.3716 159.107 36.3983C159.061 36.4249 159.012 36.4423 158.959 36.4494C158.425 36.6231 157.868 36.7165 157.307 36.7263C156.751 36.7837 156.19 36.6971 155.678 36.4751C155.165 36.253 154.719 35.9028 154.382 35.4586C153.35 36.3435 152.014 36.7975 150.654 36.7263C150.022 36.7553 149.392 36.6522 148.803 36.4239C148.214 36.1956 147.679 35.8469 147.233 35.4003C146.79 34.9324 146.446 34.3801 146.223 33.7767C145.999 33.1733 145.9 32.5312 145.931 31.8886V26.1911C145.931 25.9143 146.063 25.7686 146.341 25.7686H148.797C149.075 25.7686 149.207 25.9143 149.207 26.1911V31.4514C149.18 32.1068 149.404 32.7477 149.835 33.2437C150.05 33.471 150.312 33.6497 150.601 33.7678C150.891 33.886 151.204 33.9408 151.517 33.9286C151.837 33.9425 152.157 33.8931 152.458 33.783C152.76 33.673 153.036 33.5045 153.271 33.2874C153.494 33.0586 153.668 32.7867 153.78 32.4885C153.894 32.1902 153.944 31.8719 153.929 31.5534V26.1911C153.929 25.9143 154.061 25.7686 154.339 25.7686H156.824C157.102 25.7686 157.234 25.9143 157.234 26.1911V33.0543C157.234 33.6226 157.482 33.8994 157.965 33.8994C158.191 33.9082 158.418 33.8837 158.637 33.8266C158.693 33.8111 158.751 33.8083 158.807 33.8185C158.864 33.8286 158.917 33.8513 158.963 33.885C159.01 33.9186 159.048 33.9624 159.076 34.0128C159.102 34.0632 159.117 34.1191 159.12 34.1763L159.295 35.9977Z" fill="#394149"/>
<path d="M182.529 35.999C182.542 36.0511 182.544 36.1056 182.533 36.1584C182.522 36.211 182.5 36.2608 182.468 36.3039C182.435 36.3471 182.394 36.3826 182.346 36.408C182.299 36.4335 182.247 36.448 182.193 36.4507C181.649 36.6268 181.083 36.7202 180.511 36.7275C179.641 36.7723 178.783 36.5261 178.069 36.0281C177.761 35.8148 177.511 35.529 177.34 35.1961C177.169 34.8631 177.083 34.4931 177.09 34.1192V30.695C177.121 30.0416 176.901 29.4009 176.476 28.9027C176.271 28.6749 176.017 28.4954 175.734 28.3769C175.451 28.2586 175.145 28.2043 174.838 28.2178C174.562 28.2075 174.287 28.2598 174.033 28.3708C173.78 28.4818 173.556 28.6488 173.376 28.859C172.99 29.3472 172.793 29.9575 172.82 30.5784V35.9552C172.82 36.2321 172.689 36.3778 172.411 36.3778H169.94C169.883 36.3849 169.825 36.3788 169.77 36.3602C169.715 36.3414 169.665 36.3105 169.624 36.2697C169.583 36.229 169.553 36.1795 169.534 36.125C169.515 36.0705 169.509 36.0125 169.516 35.9552V30.695C169.548 30.0487 169.345 29.4125 168.946 28.9027C168.767 28.6885 168.544 28.5161 168.291 28.3978C168.039 28.2794 167.763 28.218 167.484 28.2178C167.185 28.2059 166.889 28.2567 166.611 28.3673C166.333 28.4778 166.083 28.6453 165.875 28.859C165.457 29.3316 165.242 29.9492 165.276 30.5784V35.9552C165.283 36.0125 165.277 36.0705 165.258 36.125C165.239 36.1795 165.209 36.229 165.168 36.2697C165.127 36.3105 165.077 36.3414 165.023 36.3602C164.967 36.3788 164.909 36.3849 164.852 36.3778H162.469C162.191 36.3778 162.059 36.2321 162.059 35.9552V29.0921C162.077 28.9752 162.067 28.856 162.029 28.7438C161.992 28.6318 161.929 28.5298 161.844 28.4463C161.761 28.3628 161.659 28.3 161.546 28.2628C161.433 28.2257 161.314 28.2153 161.197 28.2324H160.714C160.392 28.2324 160.232 28.1158 160.232 27.8827V26.1632C160.224 26.0569 160.254 25.9511 160.315 25.8636C160.376 25.7761 160.466 25.7121 160.568 25.6824C161.074 25.4992 161.609 25.4103 162.147 25.4201C162.663 25.3762 163.182 25.4788 163.643 25.716C164.103 25.9533 164.486 26.3154 164.75 26.7607C165.242 26.2948 165.827 25.9352 166.466 25.7045C167.105 25.4739 167.785 25.3771 168.463 25.4201C169.123 25.388 169.779 25.5112 170.382 25.7796C170.984 26.048 171.513 26.4539 171.929 26.9647C172.413 26.4405 173.008 26.0302 173.67 25.763C174.332 25.4959 175.046 25.3789 175.759 25.4201C176.397 25.3904 177.034 25.4928 177.631 25.7211C178.227 25.9493 178.77 26.2983 179.225 26.7461C179.669 27.2131 180.013 27.7652 180.236 28.3689C180.46 28.9725 180.559 29.6152 180.526 30.2578V33.0701C180.526 33.6238 180.774 33.9007 181.242 33.9007C181.469 33.9112 181.696 33.8867 181.915 33.8278C182.217 33.8278 182.378 33.9444 182.397 34.1775L182.529 35.999Z" fill="#394149"/>
<path d="M11.0799 23.8752C12.1586 19.5543 14.6569 15.7172 18.1769 12.9751C21.697 10.2329 26.0364 8.74316 30.5042 8.74316C34.972 8.74316 39.3115 10.2329 42.8315 12.9751C46.3516 15.7172 48.8498 19.5543 49.9285 23.8752H48.174C45.2142 23.8317 42.3151 24.7133 39.8837 26.396C39.7434 26.4973 39.5969 26.5898 39.4451 26.6729H39.2404C39.0886 26.5898 38.9421 26.4973 38.8018 26.396C36.3489 24.7522 33.46 23.8743 30.5042 23.8743C27.5484 23.8743 24.6595 24.7522 22.2067 26.396C22.0663 26.4973 21.9198 26.5898 21.768 26.6729H21.5633C21.4116 26.5898 21.2651 26.4973 21.1247 26.396C18.6934 24.7133 15.7943 23.8317 12.8345 23.8752H11.0799ZM45.0158 33.0114C45.9164 32.3124 47.0328 31.9467 48.174 31.9769H50.528V27.2994H48.174C46.1638 27.2753 44.1998 27.8988 42.574 29.0772C41.6592 29.7493 40.5525 30.112 39.4159 30.112C38.2792 30.112 37.1725 29.7493 36.2577 29.0772C34.5907 27.9208 32.6084 27.3008 30.5773 27.3008C28.5463 27.3008 26.564 27.9208 24.897 29.0772C23.9821 29.7493 22.8755 30.112 21.7388 30.112C20.6021 30.112 19.4955 29.7493 18.5806 29.0772C16.9349 27.8836 14.9426 27.2594 12.9076 27.2994H10.4805V31.9769H12.8345C13.9757 31.9467 15.092 32.3124 15.9927 33.0114C17.6566 34.1687 19.6367 34.7892 21.6657 34.7892C23.6947 34.7892 25.6748 34.1687 27.3387 33.0114C28.2406 32.3146 29.356 31.9492 30.4969 31.9769C31.6385 31.9442 32.7556 32.3103 33.6551 33.0114C35.3221 34.168 37.3044 34.7878 39.3354 34.7878C41.3665 34.7878 43.3488 34.168 45.0158 33.0114ZM45.0158 41.3754C45.9164 40.6764 47.0328 40.3107 48.174 40.3409H50.528V35.6634H48.174C46.1638 35.6393 44.1998 36.2628 42.574 37.4412C41.6592 38.1133 40.5525 38.476 39.4159 38.476C38.2792 38.476 37.1725 38.1133 36.2577 37.4412C34.5907 36.2848 32.6084 35.6649 30.5773 35.6649C28.5463 35.6649 26.564 36.2848 24.897 37.4412C23.9821 38.1133 22.8755 38.476 21.7388 38.476C20.6021 38.476 19.4955 38.1133 18.5806 37.4412C16.9349 36.2478 14.9426 35.6234 12.9076 35.6634H10.4805V40.3409H12.8345C13.9757 40.3107 15.092 40.6764 15.9927 41.3754C17.6566 42.5327 19.6367 43.1532 21.6657 43.1532C23.6947 43.1532 25.6748 42.5327 27.3387 41.3754C28.2406 40.6786 29.356 40.3132 30.4969 40.3409C31.6385 40.3082 32.7556 40.6743 33.6551 41.3754C35.3221 42.532 37.3044 43.1518 39.3354 43.1518C41.3665 43.1518 43.3488 42.532 45.0158 41.3754Z" fill="#394149"/>
</svg>
