<svg width="177" height="34" viewBox="0 0 177 34" fill="none" xmlns="http://www.w3.org/2000/svg">
<g clip-path="url(#clip0_2226_1348)">
<g clip-path="url(#clip1_2226_1348)">
<path d="M25.5664 23.966V9.20508H28.3499V21.4356H35.0977V23.966H25.5664Z" fill="#3A5088"/>
<path d="M41.1076 24.2606C40.0673 24.2606 39.1325 24.0497 38.3031 23.6279C37.4736 23.2062 36.8199 22.5947 36.3419 21.7934C35.864 20.9921 35.625 20.0291 35.625 18.9045V18.5671C35.625 17.4424 35.864 16.4794 36.3419 15.6781C36.8199 14.8768 37.4736 14.2653 38.3031 13.8435C39.1325 13.4218 40.0673 13.2109 41.1076 13.2109C42.1479 13.2109 43.0828 13.4218 43.9122 13.8435C44.7416 14.2653 45.3953 14.8768 45.8733 15.6781C46.3513 16.4794 46.5903 17.4424 46.5903 18.5671V18.9045C46.5903 20.0291 46.3513 20.9921 45.8733 21.7934C45.3953 22.5947 44.7416 23.2062 43.9122 23.6279C43.0828 24.0497 42.1479 24.2606 41.1076 24.2606ZM41.1076 21.8988C41.923 21.8988 42.5978 21.6387 43.132 21.1186C43.6662 20.5844 43.9333 19.8252 43.9333 18.8412V18.6303C43.9333 17.6462 43.6662 16.8941 43.132 16.3739C42.6118 15.8398 41.937 15.5726 41.1076 15.5726C40.2923 15.5726 39.6175 15.8398 39.0833 16.3739C38.549 16.8941 38.2819 17.6462 38.2819 18.6303V18.8412C38.2819 19.8252 38.549 20.5844 39.0833 21.1186C39.6175 21.6387 40.2923 21.8988 41.1076 21.8988Z" fill="#3A5088"/>
<path d="M47.5859 18.7779V18.4405C47.5859 17.344 47.8038 16.4091 48.2396 15.6359C48.6754 14.8487 49.2518 14.2512 49.9687 13.8435C50.6998 13.4218 51.494 13.2109 52.3516 13.2109C53.3075 13.2109 54.0315 13.3796 54.5236 13.717C55.0156 14.0544 55.3741 14.4058 55.599 14.7713H55.9786V13.5061H58.5934V25.821C58.5934 26.538 58.3825 27.1073 57.9608 27.5291C57.539 27.9649 56.9768 28.1827 56.2738 28.1827H49.2729V25.8632H55.346C55.7396 25.8632 55.9364 25.6523 55.9364 25.2305V22.5103H55.5569C55.4163 22.7353 55.2195 22.9672 54.9664 23.2062C54.7134 23.4311 54.376 23.6209 53.9542 23.7755C53.5325 23.9302 52.9983 24.0075 52.3516 24.0075C51.494 24.0075 50.6998 23.8036 49.9687 23.396C49.2518 22.9742 48.6754 22.3768 48.2396 21.6035C47.8038 20.8164 47.5859 19.8744 47.5859 18.7779ZM53.1108 21.6879C53.9262 21.6879 54.6079 21.4278 55.1562 20.9077C55.7045 20.3875 55.9786 19.6566 55.9786 18.7147V18.5038C55.9786 17.5478 55.7045 16.8168 55.1562 16.3107C54.622 15.7906 53.9402 15.5305 53.1108 15.5305C52.2954 15.5305 51.6136 15.7906 51.0653 16.3107C50.517 16.8168 50.2429 17.5478 50.2429 18.5038V18.7147C50.2429 19.6566 50.517 20.3875 51.0653 20.9077C51.6136 21.4278 52.2954 21.6879 53.1108 21.6879Z" fill="#3A5088"/>
<path d="M65.5687 24.2606C64.5284 24.2606 63.5935 24.0497 62.764 23.6279C61.9346 23.2062 61.2809 22.5947 60.803 21.7934C60.325 20.9921 60.0859 20.0291 60.0859 18.9045V18.5671C60.0859 17.4424 60.325 16.4794 60.803 15.6781C61.2809 14.8768 61.9346 14.2653 62.764 13.8435C63.5935 13.4218 64.5284 13.2109 65.5687 13.2109C66.6089 13.2109 67.5437 13.4218 68.3732 13.8435C69.2026 14.2653 69.8563 14.8768 70.3344 15.6781C70.8123 16.4794 71.0513 17.4424 71.0513 18.5671V18.9045C71.0513 20.0291 70.8123 20.9921 70.3344 21.7934C69.8563 22.5947 69.2026 23.2062 68.3732 23.6279C67.5437 24.0497 66.6089 24.2606 65.5687 24.2606ZM65.5687 21.8988C66.384 21.8988 67.0588 21.6387 67.5929 21.1186C68.1272 20.5844 68.3943 19.8252 68.3943 18.8412V18.6303C68.3943 17.6462 68.1272 16.8941 67.5929 16.3739C67.0729 15.8398 66.3981 15.5726 65.5687 15.5726C64.7532 15.5726 64.0785 15.8398 63.5443 16.3739C63.01 16.8941 62.743 17.6462 62.743 18.6303V18.8412C62.743 19.8252 63.01 20.5844 63.5443 21.1186C64.0785 21.6387 64.7532 21.8988 65.5687 21.8988Z" fill="#3A5088"/>
<path d="M72.5553 23.9663V13.5071H75.2125V23.9663H72.5553ZM73.884 12.2841C73.4055 12.2841 72.9986 12.1294 72.6605 11.8201C72.3375 11.5109 72.1758 11.1032 72.1758 10.5971C72.1758 10.091 72.3375 9.68335 72.6605 9.37407C72.9986 9.0648 73.4055 8.91016 73.884 8.91016C74.3761 8.91016 74.7839 9.0648 75.1065 9.37407C75.43 9.68335 75.5923 10.091 75.5923 10.5971C75.5923 11.1032 75.43 11.5109 75.1065 11.8201C74.7839 12.1294 74.3761 12.2841 73.884 12.2841Z" fill="#3A5088"/>
<path d="M77.207 28.1827V13.5061H79.8216V14.7713H80.2013C80.4396 14.3637 80.8121 14.0052 81.3187 13.6959C81.8244 13.3726 82.5485 13.2109 83.491 13.2109C84.3338 13.2109 85.1141 13.4218 85.8309 13.8435C86.5487 14.2512 87.125 14.8557 87.56 15.657C87.9959 16.4583 88.2143 17.4284 88.2143 18.5671V18.9045C88.2143 20.0432 87.9959 21.0131 87.56 21.8144C87.125 22.6157 86.5487 23.2273 85.8309 23.649C85.1141 24.0567 84.3338 24.2606 83.491 24.2606C82.8584 24.2606 82.3237 24.1833 81.8878 24.0286C81.4664 23.888 81.122 23.7052 80.8547 23.4803C80.6018 23.2413 80.3979 23.0023 80.243 22.7634H79.8632V28.1827H77.207ZM82.6889 21.9409C83.5191 21.9409 84.2006 21.6809 84.7343 21.1607C85.2826 20.6265 85.5572 19.8534 85.5572 18.8412V18.6303C85.5572 17.6181 85.2826 16.852 84.7343 16.3318C84.1861 15.7976 83.5046 15.5305 82.6889 15.5305C81.8742 15.5305 81.1918 15.7976 80.6435 16.3318C80.0952 16.852 79.8216 17.6181 79.8216 18.6303V18.8412C79.8216 19.8534 80.0952 20.6265 80.6435 21.1607C81.1918 21.6809 81.8742 21.9409 82.6889 21.9409Z" fill="#3A5088"/>
<path d="M94.0517 24.2608C92.6878 24.2608 91.5704 23.9656 90.6986 23.3751C89.8277 22.7847 89.3003 21.9412 89.1172 20.8447L91.5632 20.2121C91.6619 20.7041 91.8233 21.0907 92.0489 21.3719C92.2873 21.653 92.5754 21.8569 92.9135 21.9834C93.2642 22.0959 93.6439 22.1521 94.0517 22.1521C94.6707 22.1521 95.1274 22.0467 95.422 21.8358C95.7174 21.6109 95.8651 21.3367 95.8651 21.0134C95.8651 20.69 95.7247 20.4441 95.4437 20.2753C95.1619 20.0926 94.7124 19.945 94.0943 19.8325L93.5034 19.727C92.7721 19.5865 92.1051 19.3967 91.5006 19.1577C90.8952 18.9047 90.4104 18.5602 90.0452 18.1244C89.68 17.6887 89.4969 17.1264 89.4969 16.4375C89.4969 15.3971 89.8766 14.6029 90.6361 14.0546C91.3946 13.4923 92.3933 13.2112 93.6303 13.2112C94.7967 13.2112 95.7673 13.4712 96.5403 13.9914C97.3133 14.5116 97.819 15.1933 98.0583 16.0369L95.5914 16.7959C95.4791 16.2618 95.2471 15.8822 94.8954 15.6572C94.5574 15.4323 94.136 15.3198 93.6303 15.3198C93.1237 15.3198 92.7377 15.4113 92.4703 15.594C92.203 15.7627 92.0698 16.0017 92.0698 16.3109C92.0698 16.6483 92.2102 16.9014 92.4912 17.0701C92.7721 17.2247 93.1518 17.3442 93.6303 17.4286L94.2203 17.534C95.0078 17.6746 95.7174 17.8644 96.35 18.1034C96.997 18.3283 97.5027 18.6587 97.8688 19.0945C98.2477 19.5162 98.438 20.0926 98.438 20.8236C98.438 21.9202 98.0374 22.7707 97.2363 23.3751C96.4488 23.9656 95.3875 24.2608 94.0517 24.2608Z" fill="#3A5088"/>
<path d="M103.8 24.1348C102.985 24.1348 102.268 23.952 101.649 23.5865C101.045 23.207 100.574 22.6868 100.236 22.026C99.899 21.3653 99.7305 20.6062 99.7305 19.7486V13.5068H102.388V19.5377C102.388 20.325 102.577 20.9154 102.957 21.3091C103.35 21.7027 103.906 21.8995 104.622 21.8995C105.438 21.8995 106.071 21.6325 106.52 21.0982C106.971 20.5499 107.195 19.7908 107.195 18.8208V13.5068H109.852V23.966H107.237V22.5954H106.858C106.69 22.9469 106.372 23.2913 105.909 23.6287C105.445 23.9661 104.742 24.1348 103.8 24.1348Z" fill="#3A5088"/>
<path d="M111.859 23.9658V13.5065H114.474V14.6452H114.854C115.037 14.2938 115.339 13.9916 115.761 13.7385C116.182 13.4714 116.738 13.3379 117.426 13.3379C118.171 13.3379 118.77 13.4855 119.219 13.7807C119.669 14.0619 120.013 14.4344 120.252 14.8984H120.632C120.871 14.4485 121.208 14.0759 121.644 13.7807C122.08 13.4855 122.698 13.3379 123.499 13.3379C124.146 13.3379 124.73 13.4784 125.25 13.7597C125.784 14.0267 126.206 14.4414 126.515 15.0038C126.839 15.552 127 16.2479 127 17.0914V23.9658H124.343V17.2812C124.343 16.7048 124.195 16.276 123.901 15.9948C123.605 15.6997 123.19 15.552 122.656 15.552C122.052 15.552 121.581 15.7488 121.244 16.1425C120.92 16.522 120.759 17.0703 120.759 17.7872V23.9658H118.102V17.2812C118.102 16.7048 117.954 16.276 117.658 15.9948C117.363 15.6997 116.949 15.552 116.414 15.552C115.81 15.552 115.338 15.7488 115.001 16.1425C114.678 16.522 114.517 17.0703 114.517 17.7872V23.9658H111.859Z" fill="#3A5088"/>
<path d="M17.148 16.0584C17.148 12.3299 15.6668 8.75406 13.0304 6.1176C10.3939 3.48115 6.81811 2 3.08962 2C-0.638878 2 -4.21467 3.48115 -6.85113 6.1176C-9.4876 8.75406 -10.9688 12.3299 -10.9688 16.0584H-6.57545C-5.11965 16.0584 -3.9843 14.8384 -3.45106 13.4837C-3.10098 12.5943 -2.56973 11.777 -1.8808 11.088C-0.562572 9.76975 1.22537 9.02918 3.08962 9.02918C4.95386 9.02918 6.7418 9.76975 8.06004 11.088C9.37827 12.4062 10.1188 14.1941 10.1188 16.0584H17.148Z" fill="url(#paint0_linear_2226_1348)"/>
<path d="M9.04723 21.4385C9.75374 19.7328 10.1174 17.9047 10.1174 16.0586H17.1458C17.1458 23.8228 10.8517 30.1169 3.08746 30.1169C1.87154 30.1169 0.691606 29.9626 -0.433594 29.6724C0.203047 29.5083 0.828813 29.2994 1.4389 29.0468C3.14455 28.3403 4.69433 27.3048 5.99978 25.9993C7.30524 24.6939 8.34081 23.1441 9.04723 21.4385Z" fill="#FBCF8E"/>
<path d="M-18 16.0585C-18 17.9047 -17.6364 19.7328 -16.9299 21.4384C-16.2234 23.1441 -15.1878 24.6939 -13.8824 25.9993C-12.577 27.3047 -11.0272 28.3402 -9.32154 29.0468C-7.61591 29.7533 -5.78783 30.1169 -3.94161 30.1169C-2.09549 30.1169 -0.267403 29.7533 1.43825 29.0468C3.1439 28.3402 4.69368 27.3047 5.99913 25.9993C7.30459 24.6939 8.34007 23.1441 9.04658 21.4384C9.75309 19.7328 10.1168 17.9047 10.1168 16.0585H5.72345C4.26765 16.0585 3.1323 17.2785 2.59906 18.633C2.58393 18.6716 2.56834 18.7101 2.55248 18.7485C2.19923 19.6013 1.68149 20.3762 1.02872 21.0289C0.376034 21.6816 -0.398901 22.1994 -1.25168 22.5527C-2.10446 22.9059 -3.01851 23.0877 -3.94161 23.0877C-4.86472 23.0877 -5.77876 22.9059 -6.63155 22.5527C-7.48442 22.1994 -8.25926 21.6816 -8.91203 21.0289C-9.56474 20.3762 -10.0825 19.6013 -10.4357 18.7485C-10.789 17.8956 -10.9708 16.9816 -10.9708 16.0585H-18Z" fill="url(#paint1_linear_2226_1348)"/>
</g>
</g>
<defs>
<linearGradient id="paint0_linear_2226_1348" x1="17.148" y1="9.02918" x2="-10.9688" y2="9.02918" gradientUnits="userSpaceOnUse">
<stop stop-color="#73E5E2"/>
<stop offset="1" stop-color="#394F87"/>
</linearGradient>
<linearGradient id="paint1_linear_2226_1348" x1="-18" y1="23.0877" x2="10.1168" y2="23.0877" gradientUnits="userSpaceOnUse">
<stop stop-color="#FBDC8E"/>
<stop offset="1" stop-color="#FB958E"/>
</linearGradient>
<clipPath id="clip0_2226_1348">
<rect width="176.719" height="33.0702" fill="white" transform="translate(0.246094)"/>
</clipPath>
<clipPath id="clip1_2226_1348">
<rect width="145" height="29" fill="white" transform="translate(-18 2)"/>
</clipPath>
</defs>
</svg>
