<svg width="177" height="33" viewBox="0 0 177 33" fill="none" xmlns="http://www.w3.org/2000/svg">
<g clip-path="url(#clip0_2226_1389)">
<path d="M16.0911 32.1818C24.9781 32.1818 32.182 24.9779 32.182 16.0909V4.82727C32.182 3.547 31.6735 2.31916 30.7682 1.41388C29.8629 0.508586 28.635 0 27.3548 0L16.8957 0V7.05908C16.8957 8.66978 16.9938 10.3384 17.8386 11.7094C18.4434 12.6919 19.2524 13.5328 20.2108 14.1751C21.1692 14.8174 22.2545 15.2461 23.3932 15.432L23.7013 15.4819C23.8284 15.5253 23.9386 15.6074 24.0167 15.7166C24.0948 15.8258 24.1368 15.9567 24.1368 16.0909C24.1368 16.2252 24.0948 16.3561 24.0167 16.4653C23.9386 16.5745 23.8284 16.6565 23.7013 16.7L23.3932 16.7498C21.7295 17.0216 20.1932 17.8091 19.0013 19.001C17.8093 20.193 17.0218 21.7293 16.7501 23.393L16.7002 23.7011C16.6567 23.8281 16.5747 23.9384 16.4655 24.0165C16.3563 24.0946 16.2254 24.1366 16.0911 24.1366C15.9569 24.1366 15.826 24.0946 15.7168 24.0165C15.6076 23.9384 15.5255 23.8281 15.4821 23.7011L15.4322 23.393C15.2463 22.2543 14.8176 21.169 14.1753 20.2106C13.533 19.2522 12.6921 18.4432 11.7096 17.8384C10.3386 16.9936 8.67 16.8955 7.0593 16.8955H0.0195312C0.440309 25.4084 7.47445 32.1818 16.0911 32.1818Z" fill="#0E1534"/>
<path d="M0 15.2864H7.05908C8.66978 15.2864 10.3384 15.1882 11.7094 14.3434C12.781 13.6831 13.6831 12.781 14.3434 11.7094C15.1882 10.3384 15.2864 8.66978 15.2864 7.05908V0H4.82727C3.547 0 2.31916 0.508586 1.41388 1.41388C0.508586 2.31916 0 3.547 0 4.82727L0 15.2864ZM37.3752 1.60909C37.3752 2.03585 37.2056 2.44513 36.9039 2.74689C36.6021 3.04865 36.1928 3.21818 35.7661 3.21818C35.3393 3.21818 34.93 3.04865 34.6283 2.74689C34.3265 2.44513 34.157 2.03585 34.157 1.60909C34.157 1.18233 34.3265 0.773055 34.6283 0.471292C34.93 0.169529 35.3393 0 35.7661 0C36.1928 0 36.6021 0.169529 36.9039 0.471292C37.2056 0.773055 37.3752 1.18233 37.3752 1.60909ZM170.331 9.73822C174.829 9.73822 177 12.88 177 16.5189V23.3535H172.293V17.3299C172.293 15.6806 171.691 14.3193 169.965 14.3193C168.239 14.3193 167.664 15.6806 167.664 17.3299V23.3527H162.957V17.3299C162.957 15.6806 162.381 14.3193 160.655 14.3193C158.929 14.3193 158.327 15.6806 158.327 17.3299V23.3527H153.621V16.5181C153.621 12.8792 155.791 9.73741 160.289 9.73741C162.747 9.73741 164.526 10.7061 165.337 12.3031C166.199 10.7061 168.082 9.73661 170.331 9.73661V9.73822ZM145.162 19.1643C146.678 19.1643 147.332 17.7764 147.332 16.1263V10.2612H152.039V16.7024C152.039 20.5513 149.79 23.7462 145.162 23.7462C140.532 23.7462 138.284 20.5521 138.284 16.7024V10.2612H142.991V16.1263C142.991 17.7756 143.644 19.1643 145.162 19.1643ZM131.362 23.7719C128.407 23.7719 126.498 22.7509 125.373 20.7613L128.773 18.8497C129.244 19.6872 129.949 20.1064 131.126 20.1064C132.094 20.1064 132.538 19.7661 132.538 19.3469C132.538 17.7499 125.635 19.3735 125.635 14.2944C125.635 11.8324 127.726 9.84281 131.283 9.84281C134.395 9.84281 136.095 11.361 136.854 12.8277L133.454 14.765C133.167 13.9798 132.277 13.5083 131.388 13.5083C130.708 13.5083 130.342 13.7963 130.342 14.189C130.342 15.8125 137.246 14.3201 137.246 19.2423C137.246 21.9914 134.552 23.7719 131.362 23.7719ZM114.916 29.3756H110.208V16.7812C110.208 12.7746 113.216 9.86855 117.4 9.86855C121.48 9.86855 124.592 12.9846 124.592 16.7812C124.592 20.9705 121.819 23.7462 117.662 23.7462C116.694 23.7462 115.727 23.4581 114.916 23.0124V29.3756ZM117.4 19.3212C118.891 19.3212 119.885 18.169 119.885 16.807C119.885 15.4199 118.891 14.2936 117.4 14.2936C115.909 14.2936 114.916 15.4199 114.916 16.8078C114.916 18.1691 115.909 19.3212 117.4 19.3212ZM105.493 8.87414C103.95 8.87414 102.669 7.59089 102.669 6.04616C102.669 4.50143 103.95 3.21818 105.493 3.21818C107.036 3.21818 108.318 4.50143 108.318 6.04616C108.318 7.59089 107.036 8.87414 105.493 8.87414ZM103.14 10.2612H107.847V23.3535H103.14V10.2612ZM94.1077 23.7462C90.0278 23.7462 86.9158 20.6044 86.9158 16.7812C86.9158 12.9846 90.0278 9.84281 94.1077 9.84281C98.1875 9.84281 101.3 12.9846 101.3 16.7812C101.3 20.6044 98.1875 23.7462 94.1077 23.7462ZM94.1077 19.3212C95.5985 19.3212 96.5921 18.169 96.5921 16.807C96.5921 15.4199 95.5985 14.2678 94.1077 14.2678C92.6169 14.2678 91.6232 15.4199 91.6232 16.807C91.6232 18.169 92.6169 19.3212 94.1077 19.3212ZM78.0272 29.7682C74.7849 29.7682 72.4308 28.328 71.228 25.7615L75.1244 23.6673C75.5428 24.5579 76.3272 25.4743 77.9484 25.4743C79.6492 25.4743 80.7731 24.4003 80.9043 22.5152C80.2767 23.0655 79.2823 23.4839 77.7923 23.4839C74.1566 23.4839 71.2272 20.6824 71.2272 16.7547C71.2272 12.9588 74.34 9.86855 78.4198 9.86855C82.6043 9.86855 85.6117 12.7754 85.6117 16.7812V21.9657C85.6117 26.6787 82.342 29.7682 78.0272 29.7682ZM78.341 19.0597C79.753 19.0597 80.8254 18.0902 80.8254 16.6501C80.8254 15.2365 79.7538 14.2936 78.341 14.2936C76.9548 14.2936 75.8566 15.2365 75.8566 16.6509C75.8566 18.091 76.9548 19.0589 78.341 19.0589V19.0597ZM63.2429 23.7462C59.1631 23.7462 56.0503 20.6044 56.0503 16.7812C56.0503 12.9846 59.1631 9.84281 63.2429 9.84281C67.3219 9.84281 70.4347 12.9846 70.4347 16.7812C70.4347 20.6044 67.3228 23.7462 63.2429 23.7462ZM63.2429 19.3212C64.7337 19.3212 65.7273 18.169 65.7273 16.807C65.7273 15.4199 64.7337 14.2678 63.2429 14.2678C61.7521 14.2678 60.7585 15.4199 60.7585 16.807C60.7585 18.169 61.7521 19.3212 63.2429 19.3212ZM47.4786 5.68009V18.902H55.2723V23.3535H46.8245C43.8437 23.3535 42.6409 21.7823 42.6409 19.2946V5.68009H47.4786Z" fill="#0E1534"/>
</g>
<defs>
<clipPath id="clip0_2226_1389">
<rect width="177" height="32.1818" fill="white"/>
</clipPath>
</defs>
</svg>
