<svg width="48" height="48" viewBox="0 0 48 48" fill="none" xmlns="http://www.w3.org/2000/svg">
<g clip-path="url(#clip0_2226_1295)">
<path d="M42.3365 16.434C41.8585 15.572 41.2225 14.912 40.5005 14.444C39.2125 13.612 38.5265 12.082 38.8665 10.588C39.0605 9.72999 39.0485 8.79399 38.7705 7.82599C38.2785 6.10799 36.8785 4.70799 35.1605 4.21599C34.1925 3.93799 33.2565 3.92599 32.4005 4.11999C30.9045 4.45999 29.3745 3.77599 28.5425 2.48599C28.0765 1.76399 27.4145 1.12799 26.5545 0.649988C24.9905 -0.216012 23.0125 -0.216012 21.4485 0.649988C20.5865 1.12799 19.9265 1.76399 19.4605 2.48599C18.6285 3.77399 17.0985 4.45999 15.6025 4.11999C14.7465 3.92599 13.8105 3.93799 12.8425 4.21599C11.1245 4.70799 9.72453 6.10799 9.23253 7.82599C8.95453 8.79399 8.94253 9.73199 9.13653 10.588C9.47653 12.084 8.79053 13.614 7.50253 14.444C6.77853 14.91 6.14453 15.572 5.66653 16.434C5.22853 17.222 5.01653 18.118 5.02053 19.012C5.01653 19.906 5.23053 20.8 5.66653 21.59C6.14453 22.452 6.78053 23.112 7.50253 23.58C8.79053 24.412 9.47653 25.942 9.13653 27.436C8.94253 28.294 8.95453 29.23 9.23253 30.2C9.72453 31.918 11.1245 33.318 12.8425 33.81C13.8105 34.088 14.7465 34.1 15.6025 33.906C17.0985 33.566 18.6285 34.25 19.4605 35.54C19.9265 36.262 20.5865 36.898 21.4485 37.376C23.0125 38.242 24.9925 38.242 26.5545 37.376C27.4165 36.898 28.0765 36.262 28.5425 35.54C29.3745 34.252 30.9045 33.566 32.4005 33.906C33.2565 34.1 34.1925 34.088 35.1605 33.81C36.8785 33.318 38.2785 31.918 38.7705 30.2C39.0485 29.232 39.0605 28.294 38.8665 27.436C38.5265 25.94 39.2125 24.41 40.5005 23.58C41.2245 23.114 41.8585 22.452 42.3365 21.59C42.7745 20.802 42.9865 19.906 42.9825 19.012C42.9865 18.118 42.7725 17.224 42.3365 16.434ZM26.0005 30H22.0005V16.772L20.4405 18.39L17.5625 15.612L22.9785 9.99999H26.0025V30H26.0005ZM18.3825 40.144L11.2405 47.286C10.5945 47.946 9.60053 48.176 8.71453 47.858C8.36453 47.736 8.05453 47.538 7.80053 47.284C7.41253 46.896 7.15853 46.378 7.10253 45.812L6.61253 41.388L2.17053 40.896C0.836527 40.748 -0.127473 39.546 0.0185267 38.212C0.0785267 37.666 0.324527 37.15 0.710527 36.762L5.58053 31.892C6.58453 34.658 8.89653 36.838 11.7425 37.652C13.2125 38.074 14.7525 38.146 16.2045 37.862C16.7985 38.742 17.5285 39.504 18.3845 40.142M45.8365 40.894L41.3945 41.386L40.9045 45.81C40.8485 46.378 40.5945 46.894 40.2065 47.282C39.9525 47.536 39.6425 47.734 39.2925 47.856C38.4045 48.174 37.4105 47.944 36.7665 47.284L29.6245 40.142C30.4805 39.504 31.2125 38.74 31.8045 37.862C33.2585 38.144 34.7945 38.072 36.2665 37.652C39.1125 36.838 41.4245 34.658 42.4285 31.892L47.2985 36.762C47.6845 37.15 47.9305 37.664 47.9905 38.212C48.1365 39.546 47.1725 40.75 45.8385 40.896L45.8365 40.894Z" fill="#EB9624"/>
</g>
<defs>
<clipPath id="clip0_2226_1295">
<rect width="48" height="48" fill="white"/>
</clipPath>
</defs>
</svg>
