<svg width="475" height="128" viewBox="0 0 475 128" fill="none" xmlns="http://www.w3.org/2000/svg">
<g clip-path="url(#clip0_2657_96)">
<path d="M26.9717 64L27.0265 87.0126C27.0265 88.0017 27.3473 88.9641 27.9408 89.7554L27.95 89.7646L27.9591 89.7737L27.9774 89.8011L28.0231 89.856L28.1694 90.0389L28.6265 90.5874C29.0197 91.0263 29.5865 91.6297 30.318 92.3337C31.7991 93.7417 33.9751 95.5703 36.9283 97.3897C42.8528 101.038 51.7762 104.558 63.9911 104.558C76.2151 104.558 85.1477 101.029 91.0905 97.3897C94.0437 95.5794 96.2288 93.7509 97.71 92.3429C98.4737 91.6149 99.197 90.8457 99.8768 90.0389L100.014 89.8651L100.06 89.8103L100.078 89.7829C100.078 89.7829 100.096 89.7646 96.4574 87.0034L100.096 89.7646C100.697 88.9694 101.021 87.9999 101.02 87.0034V64L70.3545 77.2846C68.3473 78.1539 66.1831 78.6024 63.9957 78.6024C61.8083 78.6024 59.6441 78.1539 57.6368 77.2846L26.9717 64Z" fill="#EB9624"/>
<path fill-rule="evenodd" clip-rule="evenodd" d="M15.4972 37.2023C18.0206 37.2023 20.0686 39.7623 20.0686 42.9166V105.911C20.0686 109.074 18.0206 111.634 15.4972 111.634C12.9738 111.634 10.9258 109.074 10.9258 105.911V42.9166C10.9258 39.7623 12.9738 37.2023 15.4972 37.2023Z" fill="#124E9D"/>
<path fill-rule="evenodd" clip-rule="evenodd" d="M15.5062 100.553C13.9803 100.492 12.4578 100.739 11.0299 101.281C9.60205 101.823 8.29835 102.647 7.19703 103.705C6.09572 104.763 5.21949 106.033 4.62095 107.438C4.0224 108.843 3.71387 110.354 3.71387 111.881C3.71387 113.408 4.0224 114.92 4.62095 116.325C5.21949 117.73 6.09572 118.999 7.19703 120.057C8.29835 121.115 9.60205 121.94 11.0299 122.481C12.4578 123.023 13.9803 123.27 15.5062 123.209C18.4319 123.092 21.1985 121.847 23.2269 119.735C25.2553 117.624 26.3882 114.809 26.3882 111.881C26.3882 108.953 25.2553 106.139 23.2269 104.027C21.1985 101.916 18.4319 100.671 15.5062 100.553Z" fill="#EB9624"/>
<path fill-rule="evenodd" clip-rule="evenodd" d="M65.8196 8.15538C65.2453 7.90625 64.6261 7.77771 64.0001 7.77771C63.3742 7.77771 62.7549 7.90625 62.1807 8.15538L2.75214 33.9017C1.93292 34.2556 1.2352 34.8415 0.745023 35.5872C0.254847 36.333 -0.00634766 37.2058 -0.00634766 38.0982C-0.00634766 38.9906 0.254847 39.8635 0.745023 40.6092C1.2352 41.355 1.93292 41.9409 2.75214 42.2948L62.1807 68.0411C62.7549 68.2902 63.3742 68.4188 64.0001 68.4188C64.6261 68.4188 65.2453 68.2902 65.8196 68.0411L125.248 42.2948C126.067 41.9409 126.765 41.355 127.255 40.6092C127.745 39.8635 128.007 38.9906 128.007 38.0982C128.007 37.2058 127.745 36.333 127.255 35.5872C126.765 34.8415 126.067 34.2556 125.248 33.9017L65.8196 8.15538Z" fill="#EB9624"/>
<path fill-rule="evenodd" clip-rule="evenodd" d="M26.9717 52.7908L62.1808 68.0411C62.755 68.2902 63.3743 68.4187 64.0003 68.4187C64.6262 68.4187 65.2454 68.2902 65.8197 68.0411L101.02 52.7908V84.2971V63.9999L70.3545 77.2845C68.3473 78.1538 66.1831 78.6024 63.9957 78.6024C61.8083 78.6024 59.6441 78.1538 57.6368 77.2845L26.9717 63.9999V52.7908ZM26.9717 63.9999L27.0174 84.2971H26.9808L26.9717 63.9999Z" fill="#124E9D"/>
</g>
<path d="M147.829 35V80.868H138V35H147.829Z" fill="#EB9624"/>
<path d="M151.437 64.4857V44.828H160.61V64.4857C160.61 69.5312 164.476 72.6764 170.505 72.6764C176.336 72.6764 180.399 69.7933 180.399 64.4857V44.828H189.573V80.8671H180.399V76.8045C178.237 79.8842 174.567 81.5224 168.539 81.5224C158.579 81.5224 151.437 75.1008 151.437 64.4857Z" fill="#EB9624"/>
<path d="M212.222 53.0189C206.391 53.0189 202.328 55.902 202.328 61.2096V80.8672H193.154V44.8281H202.328V48.8907C204.49 45.811 208.16 44.1729 214.188 44.1729C224.148 44.1729 231.29 50.5944 231.29 61.2096V80.8672H222.117V61.2096C222.117 56.1641 218.251 53.0189 212.222 53.0189Z" fill="#EB9624"/>
<path d="M244.046 44.8289V80.8679H234.873V44.8289H244.046Z" fill="#EB9624"/>
<path d="M244.046 35H234.873V40.8973H244.046V35Z" fill="#124E9D"/>
<path d="M254.165 44.828L265.108 80.8671H255.541L244.598 44.828L254.165 44.828Z" fill="#EB9624"/>
<path d="M276.051 44.828H285.617L274.674 80.8671H265.108L276.051 44.828Z" fill="#124E9D"/>
<path d="M283.373 62.8477C283.373 50.6599 290.908 44.1729 303.555 44.1729C316.66 44.1729 323.736 51.1841 323.736 62.8477V64.2237H292.612C293.136 69.5313 296.936 72.6766 303.555 72.6766C308.338 72.6766 311.745 71.1039 313.383 67.9587H323.278C321.312 76.8047 314.235 81.5225 303.555 81.5225C290.449 81.5225 283.373 74.5113 283.373 62.8477ZM313.318 57.5401C311.614 54.657 308.338 53.0189 303.555 53.0189C298.902 53.0189 295.495 54.5915 293.791 57.5401H313.318Z" fill="#EB9624"/>
<path d="M326.498 44.828H335.672V51.0529C338.358 46.5972 342.88 44.828 349.17 44.828H353.233V52.6911H349.17C340.717 52.6911 335.672 58.0642 335.672 63.6994V80.8671H326.498V44.828Z" fill="#EB9624"/>
<path d="M352.859 68.6138H362.492C363.081 72.1522 366.423 73.7249 371.6 73.7249C376.449 73.7249 379.725 73.004 379.725 70.5141C379.725 64.0925 354.563 70.383 354.563 55.1156C354.563 48.1043 361.64 44.2383 370.486 44.2383C380.511 44.2383 387.391 49.2838 388.571 57.1469H379.135C378.349 53.543 375.99 51.9048 370.683 51.9048C366.816 51.9048 363.999 53.4774 363.999 55.5087C363.999 61.7992 389.685 55.8363 389.685 70.5141C389.685 77.7874 381.429 81.5224 372.779 81.5224C361.247 81.5224 353.777 77.2632 352.859 68.6138Z" fill="#EB9624"/>
<path d="M401.703 44.8289V80.8679H392.53V44.8289H401.703Z" fill="#EB9624"/>
<path d="M401.703 35H392.53V40.8973H401.703V35Z" fill="#124E9D"/>
<path d="M409.277 68.0904V52.6919H404.559V44.8288H409.277V35H418.45V44.8288H432.342V52.6919H418.45V67.8283C418.45 71.3667 420.613 72.3496 423.103 72.3496H432.342V80.8679H421.071C415.24 80.8679 409.277 78.3124 409.277 68.0904Z" fill="#EB9624"/>
<path d="M453.99 80.8671H444.423L433.48 44.828H443.047L453.99 80.8671Z" fill="#EB9624"/>
<path d="M449.993 93.9722L464.933 44.828H474.499L459.559 93.9722H449.993Z" fill="#124E9D"/>
<defs>
<clipPath id="clip0_2657_96">
<rect width="128" height="128" fill="white"/>
</clipPath>
</defs>
</svg>
